<?xml version="1.0" standalone="no"?>
<svg version="1.0" xmlns="http://www.w3.org/2000/svg"
 width="1024" height="1024" viewBox="0 0 1024 1024"
 preserveAspectRatio="xMidYMid meet">

<g transform="translate(0,1024) scale(0.1,-0.1)"
fill="#ffffff" stroke="#ffffff" stroke-width="1">
<path d="M5005 7683 l0 -646 -315 -179 c-173 -99 -389 -222 -480 -273 -91 -51
-237 -134 -325 -185 -88 -52 -232 -134 -320 -184 l-160 -91 -3 -109 c-1 -59 1
-106 6 -104 4 1 129 75 277 164 149 88 307 182 353 208 45 27 82 50 82 53 0 3
-19 -6 -43 -20 -23 -14 -69 -40 -102 -58 -33 -18 -171 -99 -307 -181 -136 -81
-250 -148 -253 -148 -3 0 -5 42 -5 93 l0 93 78 44 c42 24 181 103 307 175 220
127 665 380 1123 639 l102 59 0 643 c0 353 -3 645 -7 647 -5 3 -8 -285 -8
-640z"/>
<path d="M4765 8197 c-121 -68 -323 -181 -450 -252 -126 -71 -264 -147 -305
-170 -41 -23 -172 -96 -290 -162 -118 -66 -237 -132 -265 -148 -45 -24 -110
-61 -355 -200 -41 -24 -201 -114 -355 -200 -154 -87 -298 -170 -321 -186 -57
-39 -102 -93 -133 -159 l-26 -55 -3 -641 c-2 -511 0 -643 10 -652 14 -11 335
-192 678 -382 514 -285 748 -415 780 -435 43 -27 140 -77 140 -72 0 7 -273
161 -930 526 l-665 369 0 643 0 644 28 57 c37 75 97 135 183 185 146 84 393
223 449 254 33 17 85 46 115 64 30 18 91 53 135 77 44 25 179 100 300 168 507
284 1062 594 1230 688 254 141 275 153 275 158 0 7 4 9 -225 -119z"/>
<path d="M5270 7677 c0 -625 1 -643 19 -654 11 -7 487 -280 1058 -607 571
-326 1136 -651 1257 -720 234 -135 399 -226 410 -226 4 0 6 262 4 583 -2 459
-6 586 -16 602 -12 18 -13 17 -6 -10 4 -16 9 -286 11 -598 l4 -569 -58 33
c-32 18 -110 61 -173 97 -97 54 -543 310 -770 442 -80 47 -646 370 -1160 663
-212 120 -427 243 -477 273 l-93 55 0 634 c0 349 2 635 5 635 3 0 145 -79 316
-175 171 -97 313 -174 315 -172 2 2 -31 23 -74 47 -80 45 -98 55 -379 213 -95
53 -177 97 -183 97 -7 0 -10 -208 -10 -643z"/>
<path d="M5930 7956 c0 -3 62 -40 138 -82 75 -42 241 -135 367 -207 127 -71
394 -222 595 -335 201 -113 415 -233 475 -267 144 -81 155 -87 155 -81 0 5
-256 151 -650 371 -96 54 -256 144 -355 200 -191 109 -545 307 -657 369 -38
20 -68 35 -68 32z"/>
<path d="M7670 6976 c0 -2 38 -25 84 -50 96 -55 162 -118 205 -196 17 -30 31
-48 31 -40 0 18 -61 114 -98 152 -31 33 -222 149 -222 134z"/>
<path d="M4133 6343 c4 -6 -58 -70 -137 -142 -202 -184 -252 -240 -271 -303
-13 -44 -15 -125 -13 -527 l2 -476 6 495 5 495 24 44 c20 39 88 108 340 347
46 44 60 63 51 69 -8 5 -11 4 -7 -2z"/>
<path d="M6252 6337 c10 -8 14 -18 10 -22 -4 -5 -1 -5 6 -1 17 10 15 14 -10
26 -21 10 -21 10 -6 -3z"/>
<path d="M6295 6312 c12 -12 614 -357 850 -487 88 -48 185 -102 215 -120 30
-18 89 -50 130 -72 105 -56 393 -218 463 -260 l58 -35 -3 -711 -3 -712 -23
-58 c-37 -90 -97 -145 -262 -240 -316 -183 -775 -450 -965 -562 -110 -64 -378
-221 -595 -348 -217 -127 -507 -297 -645 -379 l-250 -148 -3 742 c-2 585 1
745 10 755 7 6 184 107 393 224 209 116 409 228 445 249 36 21 207 117 380
215 173 98 320 182 325 187 14 15 -45 -16 -160 -82 -55 -32 -194 -110 -310
-175 -115 -64 -235 -132 -265 -150 -57 -33 -159 -91 -580 -325 l-245 -136 -3
-757 c-1 -495 1 -757 8 -757 5 0 31 13 57 29 114 68 542 321 580 342 23 13
109 63 190 110 81 48 198 116 258 151 61 35 272 159 470 275 198 115 513 299
700 408 356 207 417 251 460 335 43 86 45 117 45 834 0 638 -1 684 -17 699
-16 13 -245 144 -533 302 -209 115 -529 295 -790 444 -327 187 -398 227 -385
213z"/>
<path d="M6300 6265 c130 -147 201 -243 237 -321 l27 -59 1 -442 c1 -244 5
-447 9 -451 5 -4 6 196 4 443 -5 502 -3 484 -79 597 -52 77 -155 203 -201 243
l-33 30 35 -40z"/>
<path d="M2267 5133 c-4 -3 -7 -277 -7 -608 0 -705 -1 -693 94 -805 56 -66 19
-44 1146 -685 239 -136 530 -303 645 -370 358 -208 617 -357 685 -394 36 -19
90 -49 120 -67 l55 -32 3 745 c1 551 -1 749 -9 760 -7 7 -51 34 -98 60 -47 25
-153 83 -236 128 -82 45 -233 126 -335 180 -102 54 -288 153 -415 220 -126 68
-383 204 -570 303 -297 157 -685 364 -981 523 -50 27 -94 46 -97 42z m308
-166 c150 -80 343 -184 530 -284 72 -39 236 -126 365 -193 357 -187 1268 -673
1460 -780 l65 -36 3 -743 c1 -408 -1 -741 -5 -739 -20 8 -185 103 -598 341
-247 143 -513 296 -590 340 -165 94 -677 385 -820 467 -55 31 -170 97 -255
147 -85 49 -185 107 -222 127 -97 54 -158 113 -199 192 l-34 68 -3 629 -3 628
88 -47 c48 -26 147 -78 218 -117z"/>
<path d="M6559 4924 c-10 -117 -47 -170 -252 -370 -165 -161 -171 -168 -62
-72 118 103 210 196 258 261 37 48 69 146 65 198 -3 42 -3 41 -9 -17z"/>
<path d="M3721 4878 c-2 -30 39 -126 77 -183 48 -70 186 -220 254 -276 31 -25
5 6 -64 77 -170 173 -214 234 -248 342 -10 31 -19 49 -19 40z"/>
<path d="M6685 4701 c-77 -49 -221 -136 -320 -194 -199 -117 -230 -137 -170
-108 52 25 389 224 527 312 l107 68 4 -112 3 -112 2 118 c1 64 -1 117 -5 117
-5 0 -71 -40 -148 -89z"/>
<path d="M3880 4475 c0 -2 32 -20 70 -39 39 -20 70 -34 70 -31 0 5 -65 40
-112 62 -16 7 -28 10 -28 8z"/>
<path d="M4044 4386 c11 -9 24 -16 30 -16 12 0 7 5 -24 19 -24 11 -24 11 -6
-3z"/>
<path d="M6100 4360 c-9 -6 -10 -10 -3 -10 6 0 15 5 18 10 8 12 4 12 -15 0z"/>
</g>
</svg>