<?xml version="1.0" standalone="no"?>
<!DOCTYPE svg PUBLIC "-//W3C//DTD SVG 20010904//EN"
 "http://www.w3.org/TR/2001/REC-SVG-20010904/DTD/svg10.dtd">
<svg version="1.0" xmlns="http://www.w3.org/2000/svg"
 width="476.000000pt" height="449.000000pt" viewBox="0 0 476.000000 449.000000"
 preserveAspectRatio="xMidYMid meet">

<g transform="translate(0.000000,449.000000) scale(0.100000,-0.100000)"
fill="#000000" stroke="none">
<path d="M2250 2931 c-52 -33 -131 -81 -175 -108 -188 -112 -301 -185 -313
-201 -10 -13 -11 -82 -6 -333 l7 -315 -242 -200 c-133 -109 -256 -210 -272
-224 l-30 -25 38 -39 c21 -21 57 -47 80 -58 l43 -19 248 209 c136 114 252 211
258 215 17 10 52 -2 504 -172 80 -30 87 -31 116 -17 49 23 517 316 538 336 18
18 19 30 7 356 -10 300 -13 340 -29 355 -9 9 -96 51 -192 94 -96 43 -236 105
-310 137 -74 33 -144 62 -155 64 -12 3 -57 -19 -115 -55z m614 -342 c25 -12
25 -12 -42 -58 -105 -72 -220 -159 -303 -228 -91 -75 -89 -66 -89 -315 0 -98
-3 -178 -6 -178 -8 0 -208 72 -381 137 l-123 46 0 258 0 258 66 -25 c36 -13
144 -56 241 -94 l176 -70 121 78 c66 42 161 105 211 139 49 34 93 62 97 62 4
1 18 -4 32 -10z"/>
</g>
</svg>
